<svg xmlns="http://www.w3.org/2000/svg" version="1.1" xmlns:xlink="http://www.w3.org/1999/xlink" xmlns:svgjs="http://svgjs.dev/svgjs" width="2000" height="1500" viewBox="0 0 2000 1500"><rect width="2000" height="1500" fill="#149fa8"></rect><g transform="matrix(0.75,0,0,0.75,249.090909090909,486.53694946985206)"><svg viewBox="0 0 396 138" data-background-color="#149fa8" preserveAspectRatio="xMidYMid meet" height="696" width="2000" xmlns="http://www.w3.org/2000/svg" xmlns:xlink="http://www.w3.org/1999/xlink"><g id="tight-bounds" transform="matrix(1,0,0,1,0.2400000000000091,0.6723562951859208)"><svg viewBox="0 0 395.52 137.2257642110274" height="137.2257642110274" width="395.52"><g><svg viewBox="0 0 397.4975999999999 137.91189303208253" height="137.2257642110274" width="395.52"><g><rect width="397.4975999999999" height="4.22405913445827" x="0" y="75.79031373302202" fill="#cae6d3" opacity="1" stroke-width="0" stroke="transparent" fill-opacity="1" class="rect-yte-0" data-fill-palette-color="secondary" rx="1%" id="yte-0" data-palette-color="#cae6d3"></rect></g><g transform="matrix(1,0,0,1,0.9887999999999693,91.07211929276372)"><svg viewBox="0 0 395.52 46.83977373931881" height="46.83977373931881" width="395.52"><g id="textblocktransform"><svg viewBox="0 0 395.52 46.83977373931881" height="46.83977373931881" width="395.52" id="textblock"><g><svg viewBox="0 0 395.52 46.83977373931881" height="46.83977373931881" width="395.52"><g transform="matrix(1,0,0,1,0,0)"><svg width="395.52" viewBox="4.5 -37.6 415.41 49.2" height="46.83977373931881" data-palette-color="#cae6d3"><path d="M9.25 0L4.5 0 4.5-34.9Q6.55-35.15 9.03-35.27 11.5-35.4 14.15-35.4L14.15-35.4Q18.5-35.4 21.55-34.02 24.6-32.65 26.2-30.25 27.8-27.85 27.8-24.75L27.8-24.75Q27.8-21 25.95-18.4 24.1-15.8 20.8-14.43 17.5-13.05 13.15-13.05L13.15-13.05Q11.05-13.05 9.25-13.2L9.25-13.2 9.25 0ZM13.75-17L13.75-17Q18.2-17 20.65-19 23.1-21 23.1-24.35L23.1-24.35Q23.1-27.6 20.75-29.5 18.4-31.4 14.05-31.4L14.05-31.4Q12.7-31.4 11.5-31.35 10.3-31.3 9.25-31.2L9.25-31.2 9.25-17.25Q10.05-17.15 11.2-17.07 12.35-17 13.75-17ZM40.95 0.6L40.95 0.6Q38.65 0.6 36.8-0.28 34.95-1.15 33.87-3.1 32.8-5.05 32.8-8.15L32.8-8.15 32.8-37 37.3-37 37.3-8.6Q37.3-5.9 38.42-4.6 39.55-3.3 41.55-3.3L41.55-3.3Q42.5-3.3 43.42-3.53 44.35-3.75 45-4.05L45-4.05 46.1-0.4Q45.2 0 43.87 0.3 42.55 0.6 40.95 0.6ZM59.55 0.6L59.55 0.6Q56.3 0.6 53.64-1.05 50.99-2.7 49.42-5.73 47.84-8.75 47.84-12.85L47.84-12.85Q47.84-16.75 49.42-19.85 50.99-22.95 53.77-24.78 56.55-26.6 60.14-26.6L60.14-26.6Q62.39-26.6 64.22-25.83 66.05-25.05 67.39-23.9L67.39-23.9 67.39-26 71.5-26 71.5-6.3Q71.5-4.4 72.42-3.83 73.34-3.25 74.44-3.25L74.44-3.25 73.5 0.25Q68.69 0.25 67.69-3.65L67.69-3.65Q66.55-2.05 64.57-0.73 62.59 0.6 59.55 0.6ZM60.55-3.4L60.55-3.4Q62.45-3.4 64.14-4.33 65.84-5.25 67-6.65L67-6.65 67-20.6Q65.64-21.55 64.02-22.13 62.39-22.7 60.59-22.7L60.59-22.7Q58.2-22.7 56.37-21.48 54.55-20.25 53.49-18.07 52.45-15.9 52.45-13L52.45-13Q52.45-10.2 53.49-8.03 54.55-5.85 56.39-4.63 58.24-3.4 60.55-3.4ZM80.09 11.6L80.09 11.6Q78.59 11.6 77.47 11.3 76.34 11 75.69 10.6L75.69 10.6 76.69 6.85Q77.29 7.2 78.19 7.45 79.09 7.7 80.19 7.7L80.19 7.7Q82.29 7.7 83.94 6.35 85.59 5 87.09 1.05L87.09 1.05 88.24-1.95 85.84-1.95 75.69-24.8 79.69-26.6 89.39-4.95 96.94-26.4 101.09-24.8 91.54 1.3Q90.09 5.3 88.39 7.55 86.69 9.8 84.64 10.7 82.59 11.6 80.09 11.6ZM114.14 11.6L114.14 11.6Q111.84 11.6 109.67 11.05 107.49 10.5 105.79 9.4L105.79 9.4 107.44 5.5Q108.64 6.45 110.24 7.08 111.84 7.7 114.14 7.7L114.14 7.7Q117.69 7.7 119.72 5.83 121.74 3.95 121.74-0.15L121.74-0.15 121.74-3.35Q120.74-2.15 118.87-1.07 116.99 0 114.39 0L114.39 0Q111.44 0 108.79-1.53 106.14-3.05 104.49-6 102.84-8.95 102.84-13.1L102.84-13.1Q102.84-17 104.47-20.05 106.09-23.1 108.84-24.85 111.59-26.6 114.89-26.6L114.89-26.6Q117.09-26.6 118.89-25.85 120.69-25.1 121.99-24L121.99-24 121.99-26 126.09-26 126.09-0.6Q126.09 3.7 124.59 6.4 123.09 9.1 120.42 10.35 117.74 11.6 114.14 11.6ZM115.39-4L115.39-4Q117.39-4 118.99-4.9 120.59-5.8 121.59-7L121.59-7 121.59-20.6Q120.49-21.4 118.94-22.05 117.39-22.7 115.34-22.7L115.34-22.7Q113.29-22.7 111.49-21.6 109.69-20.5 108.56-18.43 107.44-16.35 107.44-13.35L107.44-13.35Q107.44-10.5 108.56-8.4 109.69-6.3 111.49-5.15 113.29-4 115.39-4ZM138.34 0L133.84 0 133.84-26 138.19-26 138.19-20.35Q138.84-22 139.94-23.43 141.04-24.85 142.69-25.73 144.34-26.6 146.54-26.6L146.54-26.6Q147.29-26.6 148.04-26.53 148.79-26.45 149.29-26.3L149.29-26.3 147.94-21.65Q146.99-22.05 145.69-22.05L145.69-22.05Q143.84-22.05 142.16-21 140.49-19.95 139.41-17.75 138.34-15.55 138.34-12.15L138.34-12.15 138.34 0ZM163.24 0.6L163.24 0.6Q159.54 0.6 156.59-1.13 153.64-2.85 151.96-5.93 150.29-9 150.29-13L150.29-13Q150.29-17.2 151.99-20.25 153.69-23.3 156.64-24.95 159.59-26.6 163.24-26.6L163.24-26.6Q166.89-26.6 169.81-24.95 172.74-23.3 174.46-20.28 176.19-17.25 176.19-13.1L176.19-13.1Q176.19-8.95 174.49-5.88 172.79-2.8 169.86-1.1 166.94 0.6 163.24 0.6ZM163.24-3.4L163.24-3.4Q167.19-3.4 169.39-6.08 171.59-8.75 171.59-13L171.59-13Q171.59-15.6 170.49-17.78 169.39-19.95 167.51-21.28 165.64-22.6 163.24-22.6L163.24-22.6Q159.29-22.6 157.09-20 154.89-17.4 154.89-13.1L154.89-13.1Q154.89-10.5 155.99-8.28 157.09-6.05 158.96-4.73 160.84-3.4 163.24-3.4ZM190.68 0.6L190.68 0.6Q188.43 0.6 186.43-0.35 184.43-1.3 183.18-3.43 181.93-5.55 181.93-9.1L181.93-9.1 181.93-26 186.43-26 186.43-9.7Q186.43-6.65 187.73-5.03 189.03-3.4 191.53-3.4L191.53-3.4Q193.58-3.4 195.51-4.23 197.43-5.05 198.93-6.45L198.93-6.45 198.93-26 203.43-26 203.43-6.75Q203.43-4.6 204.36-3.93 205.28-3.25 206.38-3.25L206.38-3.25 205.43 0.25Q200.78 0.25 199.68-3.45L199.68-3.45Q197.93-1.65 195.63-0.53 193.33 0.6 190.68 0.6ZM216.88 0L212.38 0 212.38-26 216.73-26 216.73-21.65Q218.13-23.75 220.31-25.18 222.48-26.6 225.48-26.6L225.48-26.6Q229.88-26.6 232.06-23.95 234.23-21.3 234.23-16.95L234.23-16.95 234.23 0 229.73 0 229.73-16.45Q229.73-19.25 228.41-20.95 227.08-22.65 224.73-22.65L224.73-22.65Q222.43-22.65 220.38-21.03 218.33-19.4 216.88-17.2L216.88-17.2 216.88 0ZM251.83 0.6L251.83 0.6Q248.63 0.6 245.98-1.05 243.33-2.7 241.78-5.73 240.23-8.75 240.23-12.85L240.23-12.85Q240.23-16.8 241.8-19.9 243.38-23 246-24.8 248.63-26.6 251.78-26.6L251.78-26.6Q254.38-26.6 256.25-25.55 258.13-24.5 259.18-23.4L259.18-23.4 259.18-37 263.68-37 263.68-6.3Q263.68-4.4 264.6-3.83 265.53-3.25 266.63-3.25L266.63-3.25 265.68 0.25Q260.93 0.25 259.88-3.55L259.88-3.55Q258.78-2 256.8-0.7 254.83 0.6 251.83 0.6ZM252.83-3.4L252.83-3.4Q254.68-3.4 256.35-4.28 258.03-5.15 259.18-6.55L259.18-6.55 259.18-19.45Q258.23-20.65 256.53-21.68 254.83-22.7 252.78-22.7L252.78-22.7Q250.38-22.7 248.58-21.4 246.78-20.1 245.8-17.93 244.83-15.75 244.83-13L244.83-13Q244.83-10.25 245.88-8.08 246.93-5.9 248.75-4.65 250.58-3.4 252.83-3.4ZM292.62 0L288.12 0 288.12-21.15 284.12-21.15 284.12-25.05 288.12-25.05 288.12-28.1Q288.12-32.5 290.57-35.05 293.02-37.6 296.97-37.6L296.97-37.6Q299.02-37.6 300.57-37.13 302.12-36.65 303.52-35.95L303.52-35.95 302.17-32.15Q301.12-32.7 299.92-33.15 298.72-33.6 297.27-33.6L297.27-33.6Q295.17-33.6 293.9-32.27 292.62-30.95 292.62-28.4L292.62-28.4 292.62-25.05 300.32-25.05 300.32-21.15 292.62-21.15 292.62 0ZM309.52 0L305.02 0 305.02-26 309.52-26 309.52 0ZM307.27-30.45L307.27-30.45Q305.97-30.45 305.05-31.4 304.12-32.35 304.12-33.6L304.12-33.6Q304.12-35.05 304.97-35.9 305.82-36.75 307.27-36.75L307.27-36.75Q308.57-36.75 309.5-35.83 310.42-34.9 310.42-33.6L310.42-33.6Q310.42-32.2 309.57-31.33 308.72-30.45 307.27-30.45ZM322.02 0L317.52 0 317.52-26 321.87-26 321.87-21.65Q323.27-23.75 325.44-25.18 327.62-26.6 330.62-26.6L330.62-26.6Q335.02-26.6 337.19-23.95 339.37-21.3 339.37-16.95L339.37-16.95 339.37 0 334.87 0 334.87-16.45Q334.87-19.25 333.54-20.95 332.22-22.65 329.87-22.65L329.87-22.65Q327.57-22.65 325.52-21.03 323.47-19.4 322.02-17.2L322.02-17.2 322.02 0ZM356.97 0.6L356.97 0.6Q353.77 0.6 351.12-1.05 348.47-2.7 346.92-5.73 345.37-8.75 345.37-12.85L345.37-12.85Q345.37-16.8 346.94-19.9 348.52-23 351.14-24.8 353.77-26.6 356.92-26.6L356.92-26.6Q359.52-26.6 361.39-25.55 363.27-24.5 364.32-23.4L364.32-23.4 364.32-37 368.82-37 368.82-6.3Q368.82-4.4 369.74-3.83 370.67-3.25 371.77-3.25L371.77-3.25 370.82 0.25Q366.07 0.25 365.02-3.55L365.02-3.55Q363.92-2 361.94-0.7 359.97 0.6 356.97 0.6ZM357.97-3.4L357.97-3.4Q359.82-3.4 361.49-4.28 363.17-5.15 364.32-6.55L364.32-6.55 364.32-19.45Q363.37-20.65 361.67-21.68 359.97-22.7 357.92-22.7L357.92-22.7Q355.52-22.7 353.72-21.4 351.92-20.1 350.94-17.93 349.97-15.75 349.97-13L349.97-13Q349.97-10.25 351.02-8.08 352.07-5.9 353.89-4.65 355.72-3.4 357.97-3.4ZM387.66 0.6L387.66 0.6Q382.06 0.6 378.79-2.98 375.51-6.55 375.51-13L375.51-13Q375.51-16.9 376.99-19.98 378.46-23.05 381.11-24.83 383.76-26.6 387.26-26.6L387.26-26.6Q391.01-26.6 393.49-24.98 395.96-23.35 397.21-20.6 398.46-17.85 398.46-14.55L398.46-14.55Q398.46-12.8 398.31-11.15L398.31-11.15 380.11-11.15Q380.56-7.5 382.66-5.45 384.76-3.4 388.21-3.4L388.21-3.4Q390.46-3.4 392.26-3.88 394.06-4.35 395.71-5.1L395.71-5.1 396.76-1.25Q394.96-0.45 392.71 0.08 390.46 0.6 387.66 0.6ZM380.06-14.8L380.06-14.8 394.31-14.8Q394.31-18.6 392.41-20.65 390.51-22.7 387.16-22.7L387.16-22.7Q384.26-22.7 382.36-20.68 380.46-18.65 380.06-14.8ZM408.96 0L404.46 0 404.46-26 408.81-26 408.81-20.35Q409.46-22 410.56-23.43 411.66-24.85 413.31-25.73 414.96-26.6 417.16-26.6L417.16-26.6Q417.91-26.6 418.66-26.53 419.41-26.45 419.91-26.3L419.91-26.3 418.56-21.65Q417.61-22.05 416.31-22.05L416.31-22.05Q414.46-22.05 412.79-21 411.11-19.95 410.04-17.75 408.96-15.55 408.96-12.15L408.96-12.15 408.96 0Z" opacity="1" transform="matrix(1,0,0,1,0,0)" fill="#cae6d3" class="wordmark-text-0" data-fill-palette-color="primary" id="text-0"></path></svg></g></svg></g></svg></g></svg></g><g transform="matrix(1,0,0,1,151.89571981100974,0)"><svg viewBox="0 0 93.70616037798042 64.73256730773859" height="64.73256730773859" width="93.70616037798042"><g><svg xmlns="http://www.w3.org/2000/svg" xmlns:xlink="http://www.w3.org/1999/xlink" version="1.1" x="8" y="0" viewBox="0.0005007537549077592 2.0033868950316727 23.999499246245094 19.992613104968328" style="enable-background:new 0 0 24 24;" xml:space="preserve" height="64.73256730773859" width="77.70616037798042" class="icon-icon-0" data-fill-palette-color="accent" id="icon-0"><g fill="#06303e" data-fill-palette-color="accent"><g fill="#06303e" data-fill-palette-color="accent"><path d="M23.5 7.996H7V6.996H7.52A0.5 0.5 0 0 0 7.805 6.085L4.377 2.167A0.515 0.515 0 0 0 3.624 2.167L0.124 6.167A0.5 0.5 0 0 0 0.5 6.996H1V21.496A0.5 0.5 0 0 0 2 21.496V20.996H6V21.496A0.5 0.5 0 0 0 7 21.496V8.996H10V14.088C9.419 14.295 9 14.845 9 15.496 9 16.323 9.673 16.996 10.5 16.996S12 16.323 12 15.496C12 14.845 11.581 14.295 11 14.088V8.996H15V13.088C14.419 13.295 14 13.845 14 14.496 14 15.323 14.673 15.996 15.5 15.996S17 15.323 17 14.496C17 13.845 16.581 13.295 16 13.088V8.996H19V21.496A0.5 0.5 0 0 0 20 21.496V8.996H22V10.101C21.7 10.226 21.5 10.454 21.5 10.746S21.7 11.266 22 11.391V12.851C21.7 12.976 21.5 13.204 21.5 13.496S21.7 14.016 22 14.141V15.601C21.7 15.726 21.5 15.954 21.5 16.246S21.7 16.766 22 16.891V18.351C21.7 18.476 21.5 18.704 21.5 18.996S21.7 19.516 22 19.641V20.496A0.5 0.5 0 0 0 23 20.496V19.641C23.3 19.516 23.5 19.288 23.5 18.996S23.3 18.476 23 18.351V16.891C23.3 16.766 23.5 16.538 23.5 16.246S23.3 15.726 23 15.601V14.141C23.3 14.016 23.5 13.788 23.5 13.496S23.3 12.976 23 12.851V11.391C23.3 11.266 23.5 11.038 23.5 10.746S23.3 10.226 23 10.101V8.996H23.5A0.5 0.5 0 0 0 23.5 7.996M6 19.996H2V17.996H6zM6 16.996H2V14.996H6zM6 13.996H2V11.996H6zM6 10.996H2V6.996H6zM10.5 15.996A0.5 0.5 0 1 1 10.5 14.996 0.5 0.5 0 0 1 10.5 15.996M15.5 14.996A0.5 0.5 0 1 1 15.5 13.996 0.5 0.5 0 0 1 15.5 14.996" fill="#06303e" data-fill-palette-color="accent"></path></g></g></svg></g></svg></g><g><rect width="75.36259981100977" height="4.22405913445827" y="59.50850817328032" x="245.60188018899015" fill="#cae6d3" data-fill-palette-color="secondary"></rect><rect width="75.36259981100977" height="4.22405913445827" y="59.50850817328032" x="76.53311999999997" fill="#cae6d3" data-fill-palette-color="secondary"></rect></g></svg></g><defs></defs></svg><rect width="395.52" height="137.2257642110274" fill="none" stroke="none" visibility="hidden"></rect></g></svg></g></svg>