<svg xmlns="http://www.w3.org/2000/svg" version="1.1" xmlns:xlink="http://www.w3.org/1999/xlink" xmlns:svgjs="http://svgjs.dev/svgjs" width="1500" height="1500" viewBox="0 0 1500 1500"><rect width="1500" height="1500" fill="#149fa8"></rect><g transform="matrix(0.6666666666666666,0,0,0.6666666666666666,250,250)"><svg viewBox="0 0 280 280" data-background-color="#149fa8" preserveAspectRatio="xMidYMid meet" height="1500" width="1500" xmlns="http://www.w3.org/2000/svg" xmlns:xlink="http://www.w3.org/1999/xlink"><g id="tight-bounds" transform="matrix(1,0,0,1,0,0)"><svg viewBox="0 0 280 280" height="280" width="280"><g><svg viewBox="0 0 280 280" height="280" width="280"><g><svg viewBox="0 0 280 280" height="280" width="280"><g id="textblocktransform"><svg viewBox="0 0 280 280" height="280" width="280" id="textblock"><g><svg viewBox="0 0 280 280" height="280" width="280"><g transform="matrix(1,0,0,1,74.00336708925556,85.02197173044888)"><svg viewBox="0 0 131.99326582148888 109.95605653910222" height="109.95605653910222" width="131.99326582148888"><g id="icon-0"><svg xmlns="http://www.w3.org/2000/svg" xmlns:xlink="http://www.w3.org/1999/xlink" version="1.1" x="0" y="0" viewBox="0.0005007537549077592 2.0033868950316727 23.999499246245094 19.992613104968328" style="enable-background:new 0 0 24 24;" xml:space="preserve" height="109.95605653910222" width="131.99326582148888" class="icon-jxe-0" data-fill-palette-color="accent" id="jxe-0"><g fill="#06303e" data-fill-palette-color="accent"><g fill="#06303e" data-fill-palette-color="accent"><path d="M23.5 7.996H7V6.996H7.52A0.5 0.5 0 0 0 7.805 6.085L4.377 2.167A0.515 0.515 0 0 0 3.624 2.167L0.124 6.167A0.5 0.5 0 0 0 0.5 6.996H1V21.496A0.5 0.5 0 0 0 2 21.496V20.996H6V21.496A0.5 0.5 0 0 0 7 21.496V8.996H10V14.088C9.419 14.295 9 14.845 9 15.496 9 16.323 9.673 16.996 10.5 16.996S12 16.323 12 15.496C12 14.845 11.581 14.295 11 14.088V8.996H15V13.088C14.419 13.295 14 13.845 14 14.496 14 15.323 14.673 15.996 15.5 15.996S17 15.323 17 14.496C17 13.845 16.581 13.295 16 13.088V8.996H19V21.496A0.5 0.5 0 0 0 20 21.496V8.996H22V10.101C21.7 10.226 21.5 10.454 21.5 10.746S21.7 11.266 22 11.391V12.851C21.7 12.976 21.5 13.204 21.5 13.496S21.7 14.016 22 14.141V15.601C21.7 15.726 21.5 15.954 21.5 16.246S21.7 16.766 22 16.891V18.351C21.7 18.476 21.5 18.704 21.5 18.996S21.7 19.516 22 19.641V20.496A0.5 0.5 0 0 0 23 20.496V19.641C23.3 19.516 23.5 19.288 23.5 18.996S23.3 18.476 23 18.351V16.891C23.3 16.766 23.5 16.538 23.5 16.246S23.3 15.726 23 15.601V14.141C23.3 14.016 23.5 13.788 23.5 13.496S23.3 12.976 23 12.851V11.391C23.3 11.266 23.5 11.038 23.5 10.746S23.3 10.226 23 10.101V8.996H23.5A0.5 0.5 0 0 0 23.5 7.996M6 19.996H2V17.996H6zM6 16.996H2V14.996H6zM6 13.996H2V11.996H6zM6 10.996H2V6.996H6zM10.5 15.996A0.5 0.5 0 1 1 10.5 14.996 0.5 0.5 0 0 1 10.5 15.996M15.5 14.996A0.5 0.5 0 1 1 15.5 13.996 0.5 0.5 0 0 1 15.5 14.996" fill="#06303e" data-fill-palette-color="accent"></path></g></g></svg></g></svg></g><g id="text-0"><path d="M26.515 104.105l-1.057 3.183-23.442-7.789c0.187-0.951 0.439-1.991 0.756-3.121 0.309-1.125 0.662-2.283 1.057-3.473v0c0.647-1.947 1.504-3.501 2.573-4.662 1.074-1.159 2.268-1.918 3.58-2.28 1.312-0.361 2.661-0.312 4.045 0.148v0c1.682 0.559 2.967 1.446 3.857 2.661 0.889 1.215 1.395 2.665 1.517 4.35 0.131 1.681-0.128 3.499-0.777 5.452v0c-0.312 0.938-0.637 1.799-0.977 2.585v0zM16.101 97.283v0c0.662-1.992 0.729-3.687 0.202-5.082-0.536-1.392-1.554-2.337-3.055-2.836v0c-1.455-0.484-2.781-0.342-3.977 0.424-1.204 0.771-2.13 2.13-2.776 4.077v0c-0.202 0.608-0.379 1.185-0.532 1.73-0.159 0.543-0.294 1.059-0.406 1.546v0l9.373 3.114c0.166-0.347 0.35-0.771 0.552-1.271 0.204-0.507 0.411-1.074 0.619-1.702z" fill="#cae6d3" data-fill-palette-color="primary"></path><path d="M35.86 82.796v0c-0.492 0.966-1.121 1.743-1.888 2.331-0.77 0.595-1.679 0.908-2.728 0.94-1.049 0.032-2.223-0.283-3.523-0.945v0l-18.203-9.271 1.443-2.834 17.921 9.128c1.136 0.579 2.098 0.77 2.886 0.575 0.788-0.195 1.395-0.712 1.822-1.551v0c0.204-0.401 0.357-0.82 0.457-1.258 0.101-0.438 0.16-0.825 0.178-1.161v0l2.649 0.477c-0.022 0.463-0.111 1.007-0.268 1.631-0.154 0.618-0.403 1.264-0.746 1.938z" fill="#cae6d3" data-fill-palette-color="primary"></path><path d="M43.603 71.077v0c-0.887 1.251-2.013 2.162-3.378 2.732-1.355 0.568-2.829 0.744-4.421 0.526-1.597-0.222-3.186-0.892-4.765-2.012v0c-1.501-1.064-2.632-2.321-3.393-3.771-0.766-1.454-1.121-2.963-1.064-4.527 0.051-1.568 0.567-3.045 1.548-4.43v0c0.615-0.868 1.321-1.545 2.118-2.033 0.801-0.493 1.604-0.843 2.41-1.048v0l-1.209-0.858 1.679-2.369 11.377 8.066c0.728 0.516 1.33 0.675 1.805 0.477 0.475-0.198 0.862-0.509 1.162-0.931v0l1.634 1.973c-1.313 1.852-2.856 2.437-4.629 1.756v0c0.302 0.882 0.441 1.883 0.416 3.002-0.028 1.125-0.459 2.273-1.29 3.447zM41.7 68.864v0c0.52-0.734 0.833-1.553 0.938-2.456 0.109-0.908 0.052-1.776-0.172-2.603v0l-8.057-5.712c-0.738 0.263-1.438 0.626-2.103 1.091-0.668 0.471-1.248 1.054-1.741 1.749v0c-0.654 0.923-0.994 1.903-1.017 2.938-0.024 1.036 0.24 2.054 0.792 3.056 0.546 0.997 1.378 1.892 2.496 2.684v0c1.079 0.765 2.179 1.24 3.301 1.425 1.127 0.189 2.18 0.096 3.157-0.281 0.977-0.377 1.779-1.007 2.406-1.891z" fill="#cae6d3" data-fill-palette-color="primary"></path><path d="M58.433 64.867v0c-0.506 0.496-1 0.879-1.48 1.148-0.475 0.275-0.889 0.451-1.242 0.53v0l-1.348-2.4c0.314-0.079 0.665-0.222 1.052-0.43 0.388-0.218 0.767-0.508 1.137-0.871v0c0.706-0.692 1.115-1.536 1.227-2.532 0.112-1.006-0.23-2.422-1.027-4.248v0l-0.911-2.084-1.212 1.188-16.454-6.526 1.129-2.895 15.633 6.141-6.804-14.588 2.89-1.243 8.101 17.928c0.829 1.831 1.331 3.405 1.505 4.722 0.165 1.318 0.052 2.468-0.339 3.453-0.396 0.979-1.015 1.881-1.857 2.707z" fill="#cae6d3" data-fill-palette-color="primary"></path><path d="M76.317 49.319v0c-0.879 0.634-1.812 1.146-2.798 1.538-0.981 0.388-1.949 0.606-2.905 0.656v0l-0.668-2.921c0.722 0.034 1.476-0.051 2.261-0.255 0.785-0.205 1.617-0.624 2.496-1.257v0c1.36-0.98 2.169-2.109 2.425-3.386 0.256-1.277-0.18-2.698-1.307-4.263v0l-1.327-1.841c-0.051 0.734-0.286 1.567-0.706 2.5-0.424 0.927-1.134 1.75-2.129 2.467v0c-1.128 0.813-2.409 1.291-3.844 1.433-1.436 0.153-2.876-0.108-4.319-0.782-1.447-0.679-2.743-1.813-3.887-3.4v0c-1.076-1.493-1.725-3.046-1.946-4.659-0.216-1.617-0.039-3.139 0.53-4.565 0.57-1.436 1.486-2.608 2.746-3.517v0c0.841-0.606 1.71-1.014 2.609-1.224 0.898-0.211 1.748-0.285 2.548-0.223v0l-0.824-1.145 2.347-1.692 10.508 14.584c1.187 1.648 1.869 3.194 2.044 4.639 0.17 1.449-0.083 2.782-0.759 4-0.686 1.217-1.717 2.321-3.095 3.313zM70.584 39.84v0c0.763-0.55 1.328-1.217 1.695-2.002 0.363-0.791 0.57-1.553 0.62-2.287v0l-5.624-7.806c-0.643-0.007-1.353 0.08-2.13 0.262-0.771 0.178-1.549 0.549-2.335 1.115v0c-0.785 0.566-1.367 1.309-1.746 2.228-0.388 0.918-0.513 1.928-0.375 3.03 0.142 1.107 0.628 2.236 1.457 3.387v0c0.785 1.089 1.682 1.88 2.691 2.37 1.013 0.497 2.023 0.714 3.029 0.653 1.005-0.052 1.911-0.368 2.718-0.95z" fill="#cae6d3" data-fill-palette-color="primary"></path><path d="M86.841 33.358l-2.839 1.432-8.288-16.432 2.748-1.386 1.8 3.569c-0.076-0.832-0.035-1.666 0.124-2.501 0.162-0.83 0.499-1.607 1.012-2.331 0.507-0.721 1.222-1.315 2.147-1.782v0c0.316-0.16 0.642-0.301 0.977-0.424 0.332-0.129 0.62-0.217 0.864-0.264v0l0.624 3.373c-0.488 0.032-1.005 0.186-1.553 0.462v0c-0.779 0.393-1.409 0.99-1.891 1.79-0.482 0.8-0.715 1.777-0.699 2.929 0.01 1.155 0.377 2.451 1.102 3.888v0z" fill="#cae6d3" data-fill-palette-color="primary"></path><path d="M104.219 27.005v0c-1.657 0.547-3.274 0.649-4.851 0.308-1.581-0.333-2.975-1.064-4.181-2.196-1.206-1.131-2.104-2.593-2.695-4.386v0c-0.621-1.884-0.775-3.634-0.463-5.252 0.313-1.618 1.008-3.014 2.086-4.187 1.075-1.18 2.431-2.04 4.069-2.581v0c1.638-0.54 3.233-0.654 4.786-0.34 1.558 0.304 2.945 1.006 4.161 2.105 1.225 1.103 2.144 2.584 2.758 4.441v0c0.613 1.858 0.765 3.602 0.455 5.233-0.309 1.631-0.991 3.044-2.047 4.239-1.062 1.197-2.422 2.069-4.078 2.616zM103.331 24.315v0c1.767-0.583 2.947-1.64 3.541-3.17 0.589-1.522 0.569-3.235-0.059-5.138v0c-0.384-1.165-0.984-2.155-1.798-2.971-0.812-0.809-1.737-1.372-2.775-1.69-1.038-0.318-2.094-0.3-3.169 0.055v0c-1.767 0.583-2.954 1.62-3.56 3.112-0.6 1.49-0.581 3.199 0.055 5.128v0c0.384 1.165 0.987 2.165 1.808 3 0.821 0.835 1.75 1.411 2.788 1.729 1.038 0.318 2.094 0.3 3.169-0.055z" fill="#cae6d3" data-fill-palette-color="primary"></path><path d="M123.637 22.584v0c-1.046 0.147-2.07 0.065-3.071-0.249-0.994-0.314-1.855-0.926-2.582-1.836-0.72-0.91-1.197-2.196-1.431-3.856v0l-1.669-11.845 3.148-0.444 1.61 11.42c0.202 1.431 0.659 2.482 1.373 3.152 0.715 0.677 1.656 0.933 2.824 0.769v0c0.958-0.135 1.859-0.462 2.702-0.98 0.85-0.512 1.58-1.145 2.189-1.898v0l-1.93-13.699 3.149-0.443 1.902 13.495c0.142 1.006 0.45 1.633 0.926 1.883 0.477 0.256 0.972 0.348 1.484 0.277v0l-0.313 2.542c-2.173 0.306-3.638-0.368-4.394-2.024v0c-0.705 0.96-1.556 1.778-2.556 2.457-0.999 0.678-2.119 1.104-3.361 1.279z" fill="#cae6d3" data-fill-palette-color="primary"></path><path d="M142.68 20.981l-3.178-0.118 0.68-18.391 3.075 0.113-0.114 3.076c0.697-0.963 1.573-1.763 2.627-2.4 1.047-0.637 2.278-0.929 3.695-0.876v0c2.078 0.077 3.604 0.761 4.579 2.052 0.983 1.285 1.436 2.955 1.36 5.012v0l-0.443 11.985-3.187-0.117 0.429-11.638c0.049-1.321-0.225-2.392-0.822-3.213-0.59-0.827-1.44-1.261-2.551-1.301v0c-1.083-0.04-2.122 0.304-3.118 1.031-0.996 0.734-1.857 1.606-2.583 2.616v0z" fill="#cae6d3" data-fill-palette-color="primary"></path><path d="M167.512 24.734v0c-1.473-0.345-2.728-1.042-3.763-2.09-1.044-1.043-1.758-2.341-2.143-3.894-0.383-1.56-0.354-3.283 0.087-5.167v0c0.425-1.812 1.166-3.346 2.224-4.604 1.056-1.251 2.286-2.149 3.688-2.695 1.396-0.548 2.817-0.652 4.264-0.314v0c1.195 0.28 2.166 0.763 2.915 1.45 0.749 0.687 1.307 1.339 1.673 1.957v0l2.199-9.377 3.096 0.726-4.962 21.163c-0.204 0.869-0.124 1.487 0.239 1.852 0.363 0.365 0.799 0.607 1.31 0.727v0l-1.222 2.255c-2.183-0.512-3.313-1.697-3.388-3.556v0c-0.672 0.599-1.533 1.09-2.582 1.474-1.043 0.386-2.254 0.417-3.635 0.093zM168.845 22.138v0c0.849 0.199 1.707 0.187 2.572-0.038 0.865-0.224 1.637-0.593 2.317-1.106v0l2.086-8.899c-0.309-0.653-0.8-1.308-1.472-1.962-0.666-0.653-1.47-1.09-2.412-1.312v0c-1.108-0.26-2.144-0.188-3.107 0.217-0.97 0.403-1.794 1.053-2.474 1.951-0.686 0.896-1.177 1.975-1.473 3.236v0c-0.296 1.261-0.319 2.449-0.069 3.565 0.25 1.116 0.726 2.057 1.428 2.824 0.701 0.773 1.569 1.281 2.604 1.524z" fill="#cae6d3" data-fill-palette-color="primary"></path><path d="M196.496 35.167l-2.793-1.52 7.157-13.147-2.487-1.354 1.32-2.425 2.487 1.354 1.032-1.895c0.994-1.826 2.285-2.993 3.874-3.502 1.591-0.5 3.204-0.305 4.838 0.585v0c0.85 0.463 1.542 0.967 2.075 1.514 0.539 0.55 1.021 1.126 1.445 1.73v0l-2.13 1.902c-0.307-0.462-0.662-0.923-1.064-1.382-0.396-0.456-0.893-0.847-1.491-1.173v0c-0.868-0.473-1.718-0.579-2.552-0.318-0.823 0.258-1.524 0.917-2.1 1.976v0l-1.134 2.084 4.786 2.605-1.32 2.425-4.786-2.606z" fill="#cae6d3" data-fill-palette-color="primary"></path><path d="M208.157 42.073l-2.667-1.732 10.027-15.433 2.666 1.732zM218.57 23.136v0c-0.514-0.334-0.832-0.809-0.953-1.424-0.121-0.615-0.021-1.168 0.298-1.66v0c0.375-0.577 0.836-0.924 1.383-1.04 0.556-0.118 1.123 0.01 1.7 0.386v0c0.514 0.334 0.836 0.803 0.964 1.406 0.128 0.603 0.025 1.162-0.309 1.677v0c-0.36 0.554-0.82 0.894-1.38 1.017-0.564 0.13-1.131 0.009-1.703-0.362z" fill="#cae6d3" data-fill-palette-color="primary"></path><path d="M215.923 48.3l-2.419-2.063 11.938-14.006 2.343 1.997-1.997 2.342c1.144-0.323 2.327-0.408 3.548-0.254 1.216 0.15 2.363 0.684 3.443 1.604v0c1.582 1.349 2.356 2.832 2.32 4.45-0.026 1.617-0.707 3.209-2.042 4.775v0l-7.781 9.128-2.427-2.07 7.554-8.863c0.858-1.006 1.307-2.016 1.347-3.03 0.05-1.015-0.348-1.882-1.193-2.603v0c-0.825-0.703-1.853-1.078-3.085-1.125-1.236-0.042-2.452 0.108-3.649 0.451v0z" fill="#cae6d3" data-fill-palette-color="primary"></path><path d="M233.071 66.646v0c-0.941-1.185-1.493-2.509-1.655-3.974-0.172-1.465 0.073-2.927 0.735-4.384 0.667-1.461 1.759-2.794 3.274-3.998v0c1.457-1.157 2.99-1.901 4.6-2.231 1.604-0.326 3.126-0.268 4.565 0.173 1.435 0.436 2.614 1.236 3.538 2.4v0c0.763 0.961 1.226 1.943 1.388 2.946 0.162 1.003 0.194 1.861 0.098 2.573v0l7.541-5.991 1.978 2.489-17.02 13.521c-0.699 0.555-1.02 1.089-0.962 1.6 0.058 0.511 0.25 0.972 0.576 1.384v0l-2.357 1.01c-1.395-1.756-1.545-3.386-0.451-4.891v0c-0.899 0.052-1.879-0.096-2.94-0.446-1.057-0.344-2.026-1.071-2.908-2.181zM235.727 65.436v0c0.543 0.683 1.223 1.205 2.041 1.566 0.817 0.36 1.652 0.551 2.503 0.57v0l7.157-5.685c0.163-0.704 0.184-1.522 0.063-2.453-0.117-0.925-0.477-1.767-1.079-2.525v0c-0.708-0.891-1.565-1.477-2.571-1.757-1.01-0.286-2.06-0.287-3.151-0.004-1.094 0.277-2.148 0.819-3.162 1.624v0c-1.014 0.806-1.769 1.723-2.266 2.753-0.496 1.03-0.707 2.063-0.632 3.1 0.07 1.041 0.436 1.978 1.097 2.811z" fill="#cae6d3" data-fill-palette-color="primary"></path><path d="M245.229 85.287v0c-1.261-2.325-1.516-4.567-0.765-6.728 0.742-2.163 2.452-3.971 5.131-5.423v0c1.618-0.878 3.23-1.357 4.838-1.438 1.608-0.081 3.077 0.227 4.409 0.923 1.335 0.703 2.396 1.779 3.183 3.229v0c0.845 1.558 1.207 3.033 1.085 4.424-0.112 1.395-0.6 2.66-1.465 3.796-0.856 1.139-1.969 2.08-3.341 2.825v0c-0.725 0.393-1.447 0.742-2.166 1.047v0l-6.143-11.324c-1.415 1.008-2.311 2.18-2.687 3.516-0.38 1.33-0.181 2.711 0.596 4.144v0c0.507 0.935 1.061 1.72 1.662 2.355 0.604 0.642 1.247 1.22 1.929 1.734v0l-2.035 1.953c-0.742-0.567-1.472-1.256-2.192-2.068-0.729-0.814-1.408-1.803-2.039-2.965zM252.254 75.357v0l4.807 8.862c1.576-0.855 2.576-1.905 3.001-3.152 0.422-1.252 0.256-2.574-0.498-3.964v0c-0.65-1.198-1.612-1.964-2.886-2.296-1.268-0.336-2.743-0.152-4.424 0.55z" fill="#cae6d3" data-fill-palette-color="primary"></path><path d="M252.124 99.668l-1.09-2.987 17.288-6.311 1.055 2.891-3.755 1.371c0.835 0.022 1.658 0.16 2.47 0.415 0.805 0.258 1.537 0.683 2.197 1.277 0.657 0.587 1.163 1.368 1.518 2.341v0c0.122 0.333 0.224 0.673 0.307 1.02 0.09 0.345 0.143 0.641 0.161 0.888v0l-3.422 0.226c0.025-0.488-0.068-1.02-0.278-1.596v0c-0.299-0.82-0.818-1.515-1.556-2.088-0.739-0.572-1.681-0.917-2.828-1.036-1.149-0.125-2.478 0.088-3.989 0.64v0z" fill="#cae6d3" data-fill-palette-color="primary"></path><path d="M8.378 183.524l-1.058-3.183 23.443-7.789c0.419 0.873 0.84 1.858 1.261 2.954 0.426 1.087 0.836 2.225 1.232 3.415v0c0.647 1.947 0.89 3.705 0.729 5.274-0.168 1.571-0.669 2.894-1.504 3.969-0.835 1.075-1.945 1.842-3.33 2.302v0c-1.682 0.559-3.243 0.618-4.682 0.177-1.439-0.441-2.713-1.3-3.819-2.578-1.111-1.269-1.991-2.88-2.64-4.833v0c-0.312-0.938-0.566-1.823-0.764-2.655v0zM20.804 182.757v0c0.662 1.992 1.622 3.39 2.88 4.193 1.262 0.794 2.644 0.942 4.145 0.443v0c1.455-0.484 2.433-1.39 2.932-2.719 0.504-1.338 0.432-2.981-0.215-4.928v0c-0.202-0.608-0.405-1.176-0.61-1.704-0.198-0.53-0.398-1.024-0.6-1.482v0l-9.373 3.114c0.075 0.377 0.181 0.827 0.319 1.349 0.14 0.528 0.314 1.106 0.522 1.734z" fill="#cae6d3" data-fill-palette-color="primary"></path><path d="M18.064 207.871v0c-0.492-0.966-0.751-1.932-0.776-2.898-0.029-0.972 0.253-1.892 0.843-2.759 0.591-0.867 1.536-1.632 2.837-2.294v0l18.203-9.271 1.443 2.833-17.921 9.128c-1.136 0.579-1.856 1.244-2.162 1.996-0.305 0.752-0.245 1.547 0.183 2.386v0c0.204 0.401 0.454 0.771 0.749 1.11 0.295 0.339 0.573 0.615 0.834 0.826v0l-1.944 1.862c-0.362-0.29-0.749-0.682-1.161-1.176-0.409-0.488-0.785-1.069-1.128-1.743z" fill="#cae6d3" data-fill-palette-color="primary"></path><path d="M27.31 222.075v0c-0.887-1.251-1.373-2.615-1.46-4.091-0.087-1.467 0.235-2.916 0.968-4.346 0.738-1.434 1.897-2.711 3.476-3.83v0c1.501-1.064 3.062-1.715 4.682-1.953 1.625-0.241 3.167-0.077 4.624 0.495 1.463 0.567 2.685 1.543 3.667 2.927v0c0.615 0.868 1.021 1.758 1.217 2.672 0.2 0.919 0.264 1.793 0.192 2.621v0l1.209-0.857 1.679 2.369-11.377 8.065c-0.728 0.516-1.078 1.031-1.048 1.545 0.03 0.514 0.195 0.982 0.494 1.404v0l-2.403 0.889c-1.313-1.852-1.354-3.502-0.125-4.95v0c-0.933-0.007-1.923-0.208-2.97-0.601-1.052-0.399-1.993-1.185-2.825-2.359zM30.028 221.013v0c0.52 0.734 1.189 1.3 2.006 1.698 0.821 0.404 1.659 0.637 2.514 0.7v0l8.058-5.712c-0.004-0.783-0.115-1.565-0.334-2.345-0.223-0.786-0.581-1.527-1.074-2.222v0c-0.654-0.923-1.466-1.567-2.435-1.933-0.969-0.366-2.018-0.454-3.146-0.264-1.122 0.185-2.242 0.674-3.359 1.466v0c-1.079 0.765-1.891 1.646-2.438 2.643-0.552 1.001-0.812 2.025-0.78 3.072 0.032 1.047 0.361 2.012 0.988 2.897z" fill="#cae6d3" data-fill-palette-color="primary"></path><path d="M33.568 242.12v0c-0.506-0.496-0.899-0.981-1.179-1.456-0.284-0.469-0.469-0.88-0.555-1.23v0l2.372-1.398c0.085 0.312 0.236 0.66 0.451 1.043 0.226 0.383 0.524 0.756 0.894 1.119v0c0.706 0.692 1.558 1.083 2.557 1.174 1.008 0.091 2.417-0.28 4.226-1.114v0l2.065-0.954-1.213-1.188 6.184-16.585 2.918 1.069-5.817 15.757 14.445-7.105 1.302 2.865-17.756 8.469c-1.813 0.867-3.376 1.401-4.691 1.603-1.314 0.192-2.467 0.103-3.458-0.268-0.987-0.375-1.902-0.976-2.745-1.801z" fill="#cae6d3" data-fill-palette-color="primary"></path><path d="M55.545 261.112v0c-0.879-0.634-1.661-1.356-2.344-2.168-0.678-0.808-1.192-1.657-1.542-2.547v0l2.559-1.559c0.196 0.696 0.515 1.384 0.958 2.064 0.443 0.68 1.103 1.337 1.983 1.97v0c1.36 0.98 2.687 1.39 3.979 1.229 1.292-0.161 2.502-1.024 3.63-2.589v0l1.327-1.842c-0.712 0.184-1.577 0.224-2.595 0.122-1.014-0.109-2.018-0.522-3.014-1.239v0c-1.128-0.813-1.987-1.877-2.577-3.193-0.599-1.314-0.808-2.762-0.625-4.344 0.186-1.588 0.851-3.176 1.995-4.763v0c1.076-1.493 2.344-2.6 3.804-3.321 1.466-0.717 2.965-1.031 4.498-0.943 1.542 0.086 2.944 0.584 4.205 1.493v0c0.841 0.606 1.503 1.301 1.987 2.087 0.484 0.786 0.824 1.568 1.018 2.347v0l0.825-1.145 2.348 1.691-10.508 14.584c-1.187 1.648-2.439 2.784-3.753 3.407-1.32 0.62-2.665 0.802-4.035 0.546-1.371-0.266-2.745-0.894-4.123-1.887zM62.722 252.673v0c0.763 0.55 1.575 0.875 2.436 0.974 0.865 0.094 1.654 0.049 2.366-0.135v0l5.625-7.806c-0.197-0.613-0.505-1.258-0.923-1.938-0.412-0.675-1.011-1.296-1.797-1.861v0c-0.785-0.566-1.674-0.883-2.667-0.951-0.994-0.078-1.992 0.123-2.993 0.603-1.005 0.486-1.922 1.303-2.751 2.454v0c-0.785 1.089-1.251 2.191-1.397 3.303-0.15 1.118-0.037 2.145 0.339 3.08 0.367 0.937 0.954 1.696 1.762 2.277z" fill="#cae6d3" data-fill-palette-color="primary"></path><path d="M78.234 265.309l-2.839-1.432 8.288-16.432 2.748 1.386-1.8 3.569c0.624-0.556 1.319-1.018 2.085-1.387 0.763-0.363 1.589-0.554 2.476-0.572 0.881-0.021 1.784 0.201 2.709 0.668v0c0.316 0.16 0.624 0.337 0.922 0.533 0.301 0.19 0.543 0.369 0.725 0.538v0l-2.341 2.507c-0.316-0.373-0.747-0.698-1.295-0.974v0c-0.779-0.393-1.634-0.545-2.564-0.457-0.93 0.088-1.854 0.481-2.77 1.179-0.923 0.695-1.747 1.76-2.471 3.197v0z" fill="#cae6d3" data-fill-palette-color="primary"></path><path d="M97.962 273.564v0c-1.657-0.547-3.018-1.426-4.082-2.639-1.073-1.208-1.757-2.625-2.054-4.251-0.296-1.627-0.148-3.336 0.444-5.13v0c0.621-1.884 1.539-3.382 2.753-4.496 1.214-1.114 2.604-1.822 4.168-2.124 1.566-0.309 3.168-0.193 4.806 0.347v0c1.638 0.54 2.988 1.398 4.049 2.574 1.071 1.171 1.768 2.561 2.092 4.167 0.328 1.616 0.186 3.352-0.427 5.211v0c-0.613 1.858-1.529 3.35-2.747 4.476-1.219 1.127-2.608 1.856-4.167 2.189-1.566 0.33-3.178 0.222-4.835-0.324zM98.849 270.874v0c1.767 0.583 3.345 0.436 4.732-0.441 1.379-0.873 2.382-2.261 3.011-4.164v0c0.384-1.165 0.492-2.318 0.322-3.458-0.172-1.133-0.58-2.136-1.225-3.009-0.645-0.873-1.505-1.487-2.58-1.842v0c-1.767-0.583-3.338-0.455-4.713 0.384-1.368 0.841-2.371 2.225-3.007 4.154v0c-0.384 1.165-0.495 2.327-0.331 3.487 0.163 1.159 0.567 2.175 1.212 3.048 0.645 0.873 1.505 1.487 2.579 1.841z" fill="#cae6d3" data-fill-palette-color="primary"></path><path d="M120.85 278.795v0c-1.046-0.147-2.007-0.51-2.882-1.088-0.869-0.577-1.527-1.403-1.974-2.477-0.441-1.074-0.544-2.441-0.31-4.102v0l1.669-11.845 3.149 0.443-1.61 11.421c-0.202 1.431-0.052 2.567 0.449 3.408 0.5 0.848 1.334 1.355 2.502 1.52v0c0.958 0.135 1.914 0.07 2.867-0.195 0.959-0.257 1.835-0.664 2.629-1.22v0l1.93-13.698 3.149 0.444-1.902 13.495c-0.142 1.006-0.018 1.694 0.37 2.066 0.387 0.378 0.837 0.603 1.35 0.676v0l-1.003 2.357c-2.173-0.306-3.395-1.36-3.664-3.16v0c-0.942 0.728-1.987 1.279-3.135 1.655-1.147 0.375-2.342 0.475-3.584 0.3z" fill="#cae6d3" data-fill-palette-color="primary"></path><path d="M143.385 279.721l-3.177 0.118-0.68-18.392 3.076-0.113 0.114 3.075c0.624-1.012 1.438-1.874 2.441-2.587 0.997-0.712 2.204-1.094 3.621-1.146v0c2.078-0.077 3.65 0.493 4.718 1.708 1.075 1.209 1.65 2.841 1.726 4.899v0l0.443 11.985-3.188 0.118-0.43-11.638c-0.049-1.321-0.401-2.369-1.057-3.143-0.65-0.781-1.529-1.151-2.64-1.11v0c-1.083 0.04-2.094 0.459-3.033 1.258-0.939 0.805-1.733 1.739-2.383 2.799v0z" fill="#cae6d3" data-fill-palette-color="primary"></path><path d="M172.07 276.313v0c-1.473 0.345-2.907 0.279-4.3-0.2-1.398-0.47-2.615-1.316-3.65-2.536-1.037-1.227-1.776-2.783-2.218-4.668v0c-0.425-1.812-0.443-3.516-0.054-5.112 0.39-1.59 1.092-2.941 2.106-4.054 1.007-1.111 2.233-1.836 3.68-2.176v0c1.195-0.28 2.28-0.279 3.256 0.004 0.976 0.282 1.766 0.619 2.369 1.009v0l-2.198-9.377 3.096-0.726 4.961 21.164c0.204 0.869 0.549 1.387 1.036 1.553 0.487 0.166 0.986 0.189 1.497 0.069v0l-0.093 2.563c-2.183 0.512-3.722-0.048-4.615-1.68v0c-0.336 0.835-0.889 1.658-1.658 2.468-0.763 0.809-1.834 1.375-3.215 1.699zM172.111 273.394v0c0.849-0.199 1.612-0.591 2.286-1.176 0.675-0.585 1.203-1.259 1.585-2.021v0l-2.086-8.899c-0.567-0.448-1.297-0.816-2.191-1.104-0.887-0.289-1.802-0.323-2.744-0.102v0c-1.108 0.26-2.004 0.785-2.687 1.575-0.69 0.792-1.139 1.741-1.349 2.847-0.216 1.108-0.177 2.292 0.119 3.553v0c0.296 1.261 0.803 2.336 1.522 3.224 0.719 0.889 1.564 1.52 2.534 1.895 0.972 0.381 1.975 0.451 3.011 0.208z" fill="#cae6d3" data-fill-palette-color="primary"></path><path d="M205.634 263.222l-2.793 1.52-7.157-13.146-2.487 1.354-1.32-2.425 2.487-1.354-1.031-1.895c-0.994-1.826-1.274-3.544-0.839-5.154 0.444-1.608 1.483-2.856 3.118-3.747v0c0.85-0.463 1.649-0.77 2.397-0.921 0.754-0.154 1.5-0.246 2.237-0.274v0l0.442 2.821c-0.555 0.007-1.134 0.055-1.738 0.143-0.598 0.085-1.196 0.29-1.795 0.616v0c-0.868 0.473-1.419 1.129-1.652 1.97-0.23 0.832-0.057 1.777 0.52 2.837v0l1.134 2.084 4.787-2.606 1.32 2.424-4.787 2.606z" fill="#cae6d3" data-fill-palette-color="primary"></path><path d="M218.569 255.557l-2.667 1.732-10.026-15.433 2.666-1.732zM205.498 238.346v0c-0.514 0.334-1.077 0.432-1.688 0.292-0.611-0.14-1.076-0.455-1.396-0.947v0c-0.375-0.577-0.505-1.139-0.388-1.686 0.118-0.556 0.466-1.022 1.043-1.397v0c0.514-0.334 1.073-0.437 1.677-0.309 0.603 0.128 1.072 0.449 1.407 0.964v0c0.36 0.554 0.483 1.113 0.368 1.675-0.111 0.568-0.452 1.037-1.023 1.408z" fill="#cae6d3" data-fill-palette-color="primary"></path><path d="M228.322 247.848l-2.42 2.063-11.939-14.006 2.342-1.997 1.997 2.342c-0.138-1.181-0.034-2.362 0.311-3.543 0.34-1.177 1.05-2.225 2.129-3.145v0c1.582-1.349 3.169-1.877 4.761-1.586 1.593 0.282 3.056 1.206 4.392 2.772v0l7.78 9.127-2.428 2.07-7.554-8.863c-0.858-1.006-1.784-1.61-2.779-1.81-0.994-0.21-1.914 0.046-2.759 0.767v0c-0.825 0.703-1.358 1.659-1.6 2.868-0.237 1.214-0.281 2.439-0.133 3.673v0z" fill="#cae6d3" data-fill-palette-color="primary"></path><path d="M248.708 227.38v0c-0.941 1.185-2.107 2.022-3.496 2.511-1.389 0.499-2.867 0.591-4.436 0.275-1.574-0.319-3.12-1.081-4.636-2.285v0c-1.457-1.157-2.528-2.483-3.213-3.976-0.68-1.489-0.968-2.984-0.864-4.486 0.1-1.496 0.613-2.826 1.537-3.989v0c0.763-0.961 1.615-1.633 2.556-2.018 0.941-0.384 1.769-0.61 2.484-0.677v0l-7.541-5.991 1.977-2.49 17.021 13.521c0.699 0.555 1.291 0.747 1.776 0.575 0.485-0.172 0.89-0.463 1.217-0.874v0l1.517 2.067c-1.395 1.756-2.949 2.271-4.662 1.546v0c0.254 0.864 0.331 1.852 0.231 2.964-0.096 1.107-0.585 2.216-1.468 3.327zM246.93 225.065v0c0.543-0.683 0.897-1.464 1.063-2.341 0.166-0.878 0.163-1.734-0.01-2.568v0l-7.157-5.685c-0.723 0-1.524 0.165-2.404 0.493-0.875 0.323-1.614 0.864-2.215 1.622v0c-0.708 0.891-1.085 1.859-1.13 2.902-0.05 1.049 0.186 2.072 0.708 3.07 0.518 1.003 1.283 1.908 2.297 2.713v0c1.014 0.806 2.079 1.334 3.195 1.585 1.115 0.251 2.17 0.222 3.163-0.086 0.999-0.304 1.829-0.872 2.49-1.705z" fill="#cae6d3" data-fill-palette-color="primary"></path><path d="M262.784 205.839v0c-1.261 2.325-3.002 3.761-5.223 4.309-2.218 0.557-4.666 0.109-7.343-1.343v0c-1.618-0.878-2.899-1.968-3.844-3.272-0.945-1.303-1.488-2.703-1.63-4.199-0.139-1.502 0.185-2.978 0.971-4.429v0c0.845-1.558 1.884-2.665 3.117-3.322 1.23-0.667 2.557-0.947 3.981-0.842 1.421 0.096 2.818 0.517 4.19 1.261v0c0.725 0.393 1.411 0.808 2.058 1.245v0l-6.143 11.324c1.617 0.637 3.088 0.748 4.413 0.335 1.322-0.407 2.372-1.327 3.149-2.759v0c0.507-0.935 0.863-1.827 1.068-2.677 0.209-0.856 0.342-1.71 0.401-2.563v0l2.747 0.641c-0.071 0.931-0.25 1.919-0.538 2.965-0.285 1.055-0.743 2.164-1.374 3.326zM250.63 205.364v0l4.807-8.861c-1.576-0.855-3.002-1.121-4.279-0.797-1.28 0.329-2.297 1.189-3.05 2.579v0c-0.65 1.198-0.767 2.422-0.352 3.671 0.41 1.246 1.368 2.382 2.874 3.408z" fill="#cae6d3" data-fill-palette-color="primary"></path><path d="M270.078 188.489l-1.091 2.987-17.288-6.312 1.056-2.89 3.755 1.37c-0.625-0.555-1.165-1.191-1.621-1.908-0.45-0.716-0.736-1.513-0.858-2.392-0.124-0.873-0.009-1.795 0.347-2.769v0c0.122-0.333 0.262-0.659 0.422-0.978 0.154-0.321 0.303-0.582 0.449-0.783v0l2.763 2.032c-0.334 0.357-0.606 0.824-0.815 1.4v0c-0.299 0.82-0.351 1.686-0.155 2.599 0.196 0.913 0.695 1.785 1.495 2.614 0.798 0.836 1.952 1.529 3.463 2.081v0z" fill="#cae6d3" data-fill-palette-color="primary"></path><path d="M1.002 140.801c0-5.615 4.552-10.167 10.167-10.167 5.615 0 10.167 4.552 10.167 10.167 0 5.615-4.552 10.167-10.167 10.168-5.615 0-10.167-4.552-10.168-10.168z" fill="#cae6d3" data-fill-palette-color="primary"></path><path d="M258.664 140.801c0-5.615 4.552-10.167 10.167-10.167 5.615 0 10.167 4.552 10.168 10.167 0 5.615-4.552 10.167-10.168 10.168-5.615 0-10.167-4.552-10.167-10.168z" fill="#cae6d3" data-fill-palette-color="primary"></path></g><g id="text-1"></g></svg></g></svg></g></svg></g></svg></g><defs></defs></svg><rect width="280" height="280" fill="none" stroke="none" visibility="hidden"></rect></g></svg></g></svg>